<svg xmlns="http://www.w3.org/2000/svg" style="display:block" viewBox="0 0 2048 2048"><path fill="#181145" d="M220.06 144.615c16.263-.109 48.354 8.973 65.664 12.265 40.068 7.62 79.661 16.791 119.314 26.337 84.424 20.324 198.214 48.612 267.062 102.121 13.096 10.178 23.866 21.802 33.153 35.542 14.405 21.31 23.689 42.965 45.041 58.747 19.803 14.638 44.022 26.785 66.16 37.518 13.944 6.762 30.491 12.419 42.557 22.306 6.039 4.948 8.923 10.325 9.484 18.17 1.703 23.809-12.895 59.504-28.35 77.406-10.205 11.82-22.583 19.329-38.455 20.419a297 297 0 0 1-11.211 25.643c2.543 3.388 4.392 7.06 6.352 10.799-2.316 21.853-12.974 54.945-25.944 72.511-13.854 18.765-34.014 32.501-57.328 35.947-20.827 3.08-33.458-8.29-48.892-19.875-28.118 3.299-52.468 14.99-75.035 31.806-55.97 41.705-90.14 99.894-99.966 168.862l210.715 64.379 67.32 20.431c10.917 3.332 23.296 6.082 33.672 10.838 5.203 2.385 10.239 7.313 12.934 12.332 7.021 13.071-1.24 30.331-5.509 43.211-6.77 18.61-15.306 63.96-27.518 76.5-4.925 5.06-11.075 7.01-18.049 7.06-11.312.09-67.209-20.1-83.149-25.02l-213.37-65.35-260.132-79.4-64.836-20.135c-12.443-3.836-25.459-7.162-37.537-12.017-2.599-1.044-4.94-2.138-6.832-4.288-.288-.328-.546-.682-.826-1.017-.677-.811-1.382-1.599-2.02-2.441-4.462-5.884-5.17-11.158-4.183-18.321 2.847-20.669 10.556-41.834 16.194-61.986 3.504-12.523 6.171-26.704 11.237-38.599 1.967-4.618 5.759-12.457 10.419-14.949 4.138-2.212 11.837-1.095 16.196-.228 12.517 2.491 25.256 7.978 37.447 11.947 17.063 5.555 34.345 10.253 51.291 16.212a409.6 409.6 0 0 1-69.085-76.917c-49.476-70.846-69.604-166.696-54.511-251.498A362.05 362.05 0 0 1 216.192 273.34c15.27-14.275 31.746-26.368 48.852-38.325-9.984-20.268-21.009-40.114-31.692-60.028-4.203-7.833-9.733-16.015-13.033-24.227-1.052-2.619-.796-3.457-.259-6.145"/><path fill="#EC6073" d="m478.442 290.648 11.975 8.003-10.615 6.155c-.697-4.741-1.393-9.348-1.36-14.158"/><path fill="#EFEEEE" d="m852.85 484.998.81 1.43c-.409 1.974-.878 3.763-1.619 5.645-10.064 25.59-19.065 41.162-44.672 52.42l-.964-.977c1.71-5.476 9.874-12.788 13.285-17.853 5.833-8.663 9.035-19.184 15.784-27.234 4.334-5.169 11.822-9.48 17.376-13.431"/><path fill="#EC6073" d="M665.259 545.895c16.263 1.206 32.676 2.018 48.861 3.996 1.493 3.939 2.979 7.893 4.622 11.772 5.466 12.895 13.915 21.879 26.826 27.165-30.088-3.817-57.915-23.65-80.309-42.933"/><path fill="#EFEEEE" d="M785.736 548.443c2.131-.286 2.79-.88 4.642.354-.536 6.151-10.374 20.853-14.375 25.883-3.492 4.39-7.948 7.358-13.622 7.871-7.349.665-16.398-3.663-21.95-8.166-7.075-7.185-10.744-16.218-14.869-25.249 20.284-.259 39.845 1.146 60.174-.693"/><path fill="#F15A5A" d="M791.137 443.406c16.419-.242 50.201-4.284 63.314 7.318 1.977 1.75 3.387 4.088 3.301 6.814-.231 7.359-8.029 13.12-13.134 17.426-4.476 3.534-9.091 6.852-13.723 10.175-7.06-11.917-15.707-19.6-26.818-27.716-3.462-2.529-7.886-5.05-10.772-8.211-1.786-1.957-1.757-3.279-2.168-5.806"/><path fill="#EFEEEE" d="m354.939 511.865.525.481c.245 4.973-13.685 34.615-16.213 42.656a393.2 393.2 0 0 0-17.166 94.844c-3.16 65.448 15.759 148.361 60.559 197.785A3374 3374 0 0 1 327 829.064c-15.793-5.076-46.94-11.002-56.788-23.972-5.087-6.699-8.42-15.073-11.412-22.868-11.619-30.272-13.209-59.594-9.275-91.682 7.379-60.191 37.862-112.172 79.957-154.8 8.138-8.242 16.333-16.721 25.457-23.877m-35.287-291.361c11.026 1.059 22.3 4.037 33.148 6.311a2429 2429 0 0 0 52.809 10.664c-3.241 4.207-6.17 8.565-8.24 13.478-8.055 19.124-7.523 41.927.087 61.01a403 403 0 0 0-10.414 7.634c-92.918 70.509-163.936 200.313-179.607 315.162-1.587 9.092-2.215 18.293-2.978 27.482-31.302-46.173-42.376-103.263-35.034-158.112 10.491-78.365 62.567-142.903 124.203-189.028 7.713-5.772 15.585-11.507 23.755-16.618 8.315-5.203 17.253-9.711 25.009-15.732.312-.242.619-.493.928-.739-8.5-20.235-15.996-40.949-23.666-61.512m-187.019 560.36c3.658-.161 7.316-.092 10.885.819 24.867 6.35 49.18 15.743 73.623 23.561 30.034 9.607 60.365 18.202 90.375 27.987a13338 13338 0 0 0 263.548 83.54l153.808 46.643c18.954 5.722 62.35 16.031 77.318 24.993 2.659 4.043 5.795 8.634 5.382 13.733-.648 8.03-25.081 85.41-29.33 93.96-1.539 3.09-3.804 5.15-6.428 7.33a35.3 35.3 0 0 1-8.313 2.16c-4.072.51-8.542-.92-12.442-2.02-30.316-8.62-60.223-19.37-90.372-28.64l-193.463-58.86c-113.779-35.156-228.186-68.64-341.665-104.708-6.581-2.092-18.419-4.474-23.418-8.849-2.09-1.83-2.235-7.454-2.25-10.03-.054-9.44 22.467-92.583 27.155-104.058 1.255-3.074 3.256-5.255 5.587-7.561"/><path fill="#181145" d="M618.978 1014.66c14.257.88 111.086 30.35 125.947 37.23 1.018 2.98-.067 4.72-.942 7.7-2.06.14-3.928-.06-5.93-.55-11.161-2.76-117.518-35.92-117.785-36.1-1.683-2.9-1.446-5.07-1.29-8.28m12.609-35.269c17.787 2.935 45.978 13.864 64.358 19.521 20.131 6.198 41.897 10.888 61.465 18.518.791 3.01-.111 5.09-.861 8.04-11.483-.52-121.645-34.182-126.449-38.923-.444-3.117.335-4.278 1.487-7.156"/><path fill="#EFEEEE" d="M428.679 238.125c20.406-1.974 43.608 15.153 63.459 21.162 48.877 14.794 86.656 20.673 130.952 48.63 9.664 6.099 19.3 12.538 27.701 20.325 13.557 12.566 23.303 28.308 34.416 42.927 21.782 28.656 50.908 42.212 81.773 58.917 22.274 12.055 6.924 14.152 15.908 26.014 13.39 17.682 30.882 15.331 38.951 42.387-4.661 10.449-10.604 22.161-18.792 30.302-4.755 4.728-9.572 7.013-16.048 8.603-25.163 6.178-88.363.116-116.946-2.058-6.775-.515-14.258-2.384-21.015-1.948-2.743.177-3.909.783-5.784 2.696l.265 2.373c10.099 16.431 35.084 33.936 51.821 43.317 25.581 14.338 59.818 27.221 89.17 18.964-4.956 19.766-11.327 40.895-23.241 57.644-11.435 16.077-29.464 28.024-49.151 30.994-11.446 1.727-18.694-2.228-27.61-8.659-14.416-11.136-29.191-22.547-45.016-31.608-55.821-31.964-121.864-40.462-185.2-38.941-17.402.417-34.702 2.362-52.09 3.052-6.815-50.883 8.031-112.405 31.129-157.633 5.98-11.71 20.453-32.245 23.206-43.52-.219-.175-.417-.38-.656-.524-8.566-5.183-83.533 9.482-97.91 12.327 22.248-33.104 55.869-62.156 88.461-84.72 18.188-12.592 35.903-23.631 56.195-32.548 4.39-1.929 11.512-4.133 13.608-8.632-3.477-6.19-13.078-4.717-18.955-7.728-18.743-9.606-34.446-24.743-55.465-30.742-4.594-1.311-10.835-2.425-15.086.43-9.366 6.291-6.783 26.332-9.765 36.268-1.011 3.366-2.762 6.414-6.001 8.019-1.707.846-2.11.178-3.744-.46-1.502-1.987-2.546-3.637-3.238-6.055-3.462-12.084-1.421-34.924 4.802-45.898 4.853-8.56 10.966-11.035 19.896-13.677"/><path fill="#181145" d="M548.577 339.279c11.789-.35 23.644-.515 35.427.127 19.246 1.047 49.138 6.244 62.435 21.689 5.016 5.827 29.293 43.135 28.835 49.449-1.086 2.413-2.184 3.193-4.35 4.661-31.759-4.03-51.727-20.002-72.523-43.066-6.066-6.728-12.817-14.407-21.267-18.136-8.538-3.768-18.482-1.639-27.508-3.999-3.336-.872-5.777-1.259-7.584-4.223.104-.764.154-1.488.517-2.202 1.614-3.174 2.846-3.267 6.018-4.3"/><path fill="#EC6073" d="M593.589 351.712c4.036.365 7.923.958 11.87 1.863 32.251 7.397 38.312 21.986 54.647 47.835-29.956-2.659-45.023-30.478-65.121-48.464z"/><path fill="#F15A5A" d="M238.648 159.282c33.728 7.393 67.903 13.178 101.71 20.32 24.706 5.219 49.233 11.651 73.75 17.712 76.882 19.008 189.419 47.977 251.138 97.625 17.093 13.75 29.656 30.845 41.036 49.411 5.904 9.632 11.521 19.777 18.941 28.354 21.774 25.17 66.216 43.684 96.117 59.293-8.538-1.059-18.064.428-26.345-1.572-11.833-2.859-24.326-10.576-35.077-16.256-20.865-11.024-42.191-23.34-58.399-40.765-6.704-7.206-12.106-16.009-17.912-23.965-17.322-23.739-34.622-40.225-60.342-54.657-17.371-9.748-35.617-18.979-54.539-25.26-26.843-8.909-54.999-14.003-81.713-23.18-11.214-3.852-21.629-9.788-32.442-14.597-12.487-5.552-23.779-6.74-36.66-1.795-10.478-3.171-100.997-23.11-107.947-22.648-.681.046-1.216.621-1.825.931-3.225 11.169 15.919 56.654 20.5 69.354-67.01 41.9-123.821 93.993-154.64 168.632-23.281 56.381-23.866 125.395-.13 181.734 5.053 11.993 23.439 50.84 35.743 55.826 5.043-.817 4.867-9.88 5.284-14.26 4.788-50.233 11.718-83.283 29.673-130.767 26.355-69.696 71.101-144.919 128.507-193.359 10.097-8.52 20.859-17.033 31.958-24.206 8.436-5.45 17.783-9.211 24.889-16.47-.113-8.785-1.101-18.951 1.137-27.448 1.016-3.855 2.447-5.682 5.918-7.583 10.304-.717 32.293 15.423 41.464 20.962-.033 4.81.663 9.417 1.36 14.158-49.813 28.086-86.99 61.02-124.477 103.763-4.791 5.463-15.449 15.087-16.956 21.951-.559 2.546.151 3.544 1.303 5.666 4.542 2.171 87.256-13.181 100.05-15.409-29.964 52.528-50.772 105.943-49.559 167.516.178 9.05-.192 19.185 1.46 28.074.246 1.32.546 2.51 1.122 3.727 3.049 6.449 27.171 2.781 33.427 2.461 78.108-3.992 158.244 2.413 224.565 47.801-21.21 5.511-40.497 13.514-58.662 25.866a264.7 264.7 0 0 0-105.736 144.914c-3.551 12.034-5.615 24.422-7.943 36.733a917 917 0 0 0-41.377-12.72c-8.471-2.372-17.477-4.273-25.666-7.425-20.572-7.919-41.694-46.771-50.758-66.223-35.474-76.122-34.502-167.939-5.963-246.115 4.694-12.858 10.643-25.567 16.856-37.769 3.245-6.375 7.628-12.704 10.072-19.392-1.759-2.613-4.813-3.366-7.621-4.494-13.463 8.385-25.834 19.151-37.49 29.855-35.212 32.335-63.533 68.692-82.058 113.132-17.63 42.292-24.576 95.81-13.035 140.618 3.109 12.072 8.724 23.477 13.459 34.978-16.379-10.044-32.262-25.747-45.117-39.906-64.206-70.717-97.707-154.134-93.052-250.141 4.067-83.869 42.735-170.105 103.791-228.085 10.4-9.875 21.745-20.29 33.322-28.741 7.999-5.838 17.194-10.32 24.467-17.072.278-.259.548-.527.821-.79-3.634-8.977-9.147-17.523-13.652-26.108a3387 3387 0 0 1-26.747-52.189"/><path fill="#181145" d="M1543.1 638.333c.27-.046.54-.135.81-.139 3.71-.051 5.13 1.429 7.95 3.648 13.36 10.499 26.01 22.166 39.12 33.01l144.61 121.063a7204 7204 0 0 1 164.99 139.47c20.99 17.938 43.79 34.549 63.97 53.339 4.62 4.31 10.9 9.409 10.88 16.106-.04 12.46-7.6 28.76-11.43 40.82-12.98 40.81-27.1 81.16-40.63 121.77l-84.71 253.44c-16.46 48.87-32.36 98.35-50.83 146.48-1.45 3.78-3.01 7.23-5.97 10.09-5.63 5.45-11.61 10.5-17.63 15.51a1826.3 1826.3 0 0 1-364.97 236.37c-19.06 9.39-38.63 17.74-57.91 26.67-12.16 5.63-55.37 27.67-66.04 25.36-7.86-1.7-55.45-60.53-64-70.79-22.17-27.12-43-55.98-63.53-84.37a1892 1892 0 0 1-174.121-296.33c-7.367-15.58-19.322-35.57-22.579-52.09-3.005-15.23.982-110.18 3.723-127.18a257 257 0 0 1-5.986-4.16c-30.141-21.65-58.06-47.6-86.502-71.43a934 934 0 0 0-23.08-19c-6.134-4.8-13.081-9.32-18.58-14.83-3.697-3.7-6.764-8.2-7.437-13.5-.607-4.78.896-9.73 3.862-13.5 2.806-3.57 6.868-6.12 11.454-6.46 4.013-.3 7.053 1.45 10.331 3.52 10.639 6.72 20.165 16.23 29.991 24.11a3881 3881 0 0 1 87.659 72.64 15322 15322 0 0 0 9.44-258.641c1.27-48.906 1.622-98.124 4.326-146.96.206-3.716.325-16.616 2.767-19.38 3.115-3.526 10.29-5.615 14.796-6.829 51.896-13.972 104.356-26.011 156.476-39.117a17801 17801 0 0 1 247.03-61.536c34.63-8.193 68.99-17.516 103.56-26.037 15.95-3.933 31.97-8.468 48.19-11.137"/><path fill="#EFEEEE" d="M1546.65 657.465c12.87 7.67 24.42 18.898 35.85 28.537l56.1 47.096c55.06 45.963 110.83 91.28 164.99 138.306a4730 4730 0 0 0 109.77 93.016c15.24 12.434 30.22 26.148 46.45 37.23l-18.31 4.26a1136 1136 0 0 1-44.18 7.6c-13.81-8.61-26.32-21.706-38.59-32.374a3306 3306 0 0 0-55.52-46.982l-268.76-227.03c4.93-16.468 8.85-32.809 12.2-49.659m-13.05-3.182.82 1.144a3386 3386 0 0 1-13.42 51.078c-31.85 7.313-63.43 16.569-95.19 24.4l-247.73 60.968c-45.37 11.242-90.65 23.169-136.14 33.846a774 774 0 0 1-25.53-19.237c-7.66-6.166-15.58-11.944-23.534-17.721 26.384-5.735 52.504-12.826 78.684-19.422L1201 736.994zm424.89 360.947 1.57.08c.16.48.48.94.47 1.44-.03 3.13-4.31 10.19-5.52 13.37-3.15 8.29-5.66 16.95-8.41 25.39a17140 17140 0 0 1-110.59 332.68l-35.91 103.35c-8.59 24.04-19.04 48.93-24.78 73.81-93.57 78.55-191.47 149.81-298.82 208.47-61.75 33.74-125.26 62.61-189.17 91.91-1.06.05-.4.11-1.87-.66 2.49-19.62 5.4-40.21 11.87-58.93a1152 1152 0 0 0 75.56-34.47c109.89-55 215.24-117.65 312.34-193.28 13.89-10.81 32.23-22.38 43.28-36.05 9.96-12.31 49.35-142.33 58.23-168.93l116.01-346.62c18.3-4.68 37.22-7.81 55.74-11.56M983.921 801.332c14.159 7.666 33.889 25.156 47.109 35.482.05 78.911-3.78 158.139-7.25 236.966l-4.52 118.5-4.69 125.8c-.52 15.03-4.1 37.31-.8 51.63 3.44 14.91 17.62 38.34 24.59 53.26 24.25 51.98 52.69 101.75 82.56 150.65a1870 1870 0 0 0 95.99 143.78c21.41 28.92 45.59 55.72 66.92 84.68l-12.66 57.63a1573 1573 0 0 1-107.38-134.21c-28.09-41.99-57.21-83.04-83.71-126.12a1909 1909 0 0 1-88.47-164.59c-7.947-16.38-23.22-43.25-26.845-60.14-3.053-14.23-.399-32.33.162-46.84l3.043-77.77c-16.263-10.6-37.922-31.26-53.612-44.29-27.549-22.88-56.967-44.95-83.241-69.22-3.334-3.08-6.818-6.42-8.82-10.54.42-2.03 1.653-4.59 3.321-5.94 1.436-1.16 3.636-2.4 5.59-1.84 6.882 1.99 16.866 12.34 22.651 17.03 14.701 11.92 105.086 90.41 113.919 91.23 5.906-11.9 14.292-376.059 16.143-425.138"/><path fill="#EFEEEE" d="M1524.24 720.165c3.37.002 4.5.939 7.21 3.013 10.29 7.903 19.82 17.219 29.85 25.53a6434 6434 0 0 1 94.74 79.906l185.37 156.081c15.51 12.902 31.01 28.815 47.89 39.725l-166.32 499.39c-6.35 18.55-40 39.42-56.37 51.64a1802 1802 0 0 1-305.27 186.92c-22.17 10.82-44.83 21.25-67.55 30.88a1833 1833 0 0 1-243.05-378.3c-7.57-16.13-19.27-34.16-22.85-51.5-3.3-16.03-.34-38.48.26-55.19l4.31-108.39a31154 31154 0 0 1 12.64-360.184c31.95-9.074 64.59-15.817 96.79-24.007 127.27-32.382 255.53-61.417 382.35-95.514"/><path fill="#181145" d="M1080.28 911.499c.4.207.82.386 1.2.623 12.1 7.486 23.4 21.483 33.84 31.259 18.62 17.424 38.03 34.17 56.93 51.316l113.62 103.513 34.74 31.21c5.69 5.03 12.23 9.7 17.35 15.26 1.36 1.47 2.16 2.56 2.64 4.55-4.32 3.88-57.21 17.66-66.05 20.33-12.6 4.41-25.71 7.76-38.52 11.56a4695 4695 0 0 1-74.33 21.8l-61.67 17.17c-6.55 1.83-12.99 4.84-19.54 6.33-2.82.64-5.12.97-7.96.43-1.83-2.26-2.37-3.44-2.46-6.39-.44-13.36 1.07-27.36 1.6-40.76l2.91-81.21a8779 8779 0 0 0 3.25-97.5c.71-29.834.85-59.687 2.45-89.491"/><path fill="#EFEEEE" d="M1092.12 941.507c7.61 4.761 14.74 13.1 21.54 19.186l48.44 43.197 104.89 94.53c16.7 15.04 34.14 29.36 50.3 44.97-18.66 6.51-38.45 11.08-57.54 16.29-25.07 6.61-49.78 14.69-74.65 21.99l-101.11 28.62c2.42-38.49 2.7-77.5 3.77-116.06a12104 12104 0 0 0 4.36-152.723"/><path fill="#181145" d="M1807.05 1119.23c1.65-.16 3.26-.07 4.91-.02l.61 1.25-66.91 207.38c-5.47 17.03-23.77 81.31-31.71 92.76-.72 1.04-1.32 2.34-2.72 2.38-3.59.11-8.5-3.55-11.29-5.63-18.54-13.79-35.53-31.02-52.62-46.6l-71.82-64.6-62.86-54.97c-21.55-18.56-44.11-36.78-63.35-57.73 33.03-9.93 68.9-13.84 102.72-20.78 85.07-17.44 170.51-33.54 255.04-53.44"/><path fill="#EFEEEE" d="M1789.68 1137.19c2.13-.02 2.3-.47 3.97 1.03-.65 7.33-5.3 16.63-7.65 23.72l-19.29 58.27c-8.5 25-15.91 50.36-24.1 75.46l-36.57 109.32c-39.84-35.23-78.73-71.61-119.03-106.3l-111.13-97.99c13.97-1.65 27.62-5.07 41.4-7.79l80.95-16.46a14645 14645 0 0 0 191.45-39.26"/><path fill="#181145" d="M1329.82 1279.27c1.48-.02.61-.12 2.55.62-1.02 17.11-6.58 34.88-10.29 51.62-6.24 28.06-12.28 56.1-18.9 84.09-10.96 46.28-19.96 92.97-31.51 139.11 35.15 7.08 69.89 18.36 104.49 27.84 3.42-15.64 6.04-31.44 9.34-47.11 3.9-18.47 8.87-36.72 12.88-55.17 10.68-49.22 20.75-98.45 32.52-147.44 50.45 46.93 102.98 91.89 154.18 138.03 21.7 19.56 45.11 38.49 65.1 59.79a1861 1861 0 0 1-94 69.04c-58.17 41.92-121.6 77.09-185.39 109.64-17.76 9.06-36.72 20.15-55.46 26.79-3.09 1.1-6.37 2.19-9.47.62-8.82-4.49-26.33-29.92-33.2-38.82-60.09-77.95-110.75-160.91-156.83-247.78-18.76-35.35-39.1-73.07-50.76-111.45 28.41-8.33 58.06-13.98 86.96-20.41 59.22-13.18 118.67-25.4 177.79-39.01"/><path fill="#EFEEEE" d="m1312.62 1297.17 2.2.21c2.08 5.31-53.87 237.75-58.51 267.19a4898 4898 0 0 1 129 34.51c8.01-23.95 11.74-50.81 17.21-75.54l36.13-165.64c15.78 12.43 30.08 26.53 44.85 40.09l56.04 50.54c28.61 25.85 61.87 52.34 88.63 79.48-18.27 20.6-47.91 38.61-70.67 54.76-55.87 40.67-117.09 75.56-178.56 107-22.39 11.45-44.7 23.06-67.88 32.85-23.5-26.68-44.29-54.87-64.79-83.87a1578.6 1578.6 0 0 1-118.13-194.84c-16.36-31.24-33.51-63.71-46.19-96.64 13.62-3.59 27.82-5.73 41.57-8.92 62.82-14.58 126.17-26.99 189.1-41.18"/><path fill="#181145" d="M1511.34 769.109c.08 0 .16-.008.24.001 5.51.648 15.52 10.656 19.99 14.332 15.54 12.767 30.11 26.613 45.53 39.497a11158 11158 0 0 1 160.45 134.757 4240 4240 0 0 0 52.21 44.174c12.18 10.08 25.56 19.8 36.54 31.14-33.64 10.79-69.95 15.22-104.4 23.05l-276.17 60.23-24.16 4.97c-37.02-38.27-78.67-72.25-118.37-107.68-57.04-50.931-113.15-102.687-171.24-152.445 21.89-4.458 43.4-10.288 65.13-15.405a6669 6669 0 0 0 132-31.575c60.78-14.972 121.78-28.799 182.25-45.046"/><path fill="#EFEEEE" d="M1510.96 784.334c7.69 4.556 15.43 12.607 22.16 18.526 13.89 12.23 27.69 24.616 41.96 36.402l154.89 130.043c21.94 18.73 45.31 36.365 66.13 56.285-116.96 26.83-234.44 51.18-351.65 76.92-5.85 1.01-11.72 2.67-17.5 4.05-24.94-21.14-48.12-44.19-72.48-65.95l-192.52-172.963c33.25-6.534 66.31-15.376 99.3-23.182a12740 12740 0 0 0 148.99-35.398c33.43-8.349 66.98-17.723 100.72-24.733"/><path fill="#181145" d="M1422.12 821.773a153 153 0 0 1 2.43.389c16.93 2.864 33.52 8.082 50.03 12.726 26.21 7.374 54.65 11.429 71.18 35.595a57.5 57.5 0 0 1 8.4 44.385c-3.67 16.472-13.62 28.519-27.66 37.342a254 254 0 0 1 3.4 4.484c8.31 11.226 12.85 23.747 10.49 37.857-3.11 18.529-14.18 33.479-29.21 44.199-2.01 1.08-4.06 2.17-6.17 3.06-9.57 4.06-19.73 5.67-30.1 5.22-21.93-.95-80.24-19.03-101.82-27.23 1.21-11.79 4.74-23.597 7.55-35.09l13.36-54.612c5.97-24.582 17.91-88.803 28.12-108.325"/><path fill="#EFEEEE" d="M1429.71 836.75c26.84 7.803 66.75 13.666 90.06 27.824 10.55 6.403 19.03 16.085 21.65 28.378 2.5 11.713-.63 24.593-7.21 34.509-7.69 11.572-19.25 15.568-32.17 18.346 11.73 10.558 24.92 22.246 25.45 39.26.45 14.346-6.61 26.263-15.98 36.403-2.76 2.53-5.7 4.73-9 6.53-23.28 12.67-52.63 1.03-75.84-5.87l-39.27-11.31c7.45-20.339 11.23-43.145 16.35-64.211 8.89-36.553 18.45-72.991 25.96-109.859"/><path fill="#181145" d="M1455.34 875.16c16.58 4.459 37.65 6.791 47.45 22.381.27 4.987.99 11.093-.36 15.914-1.79 6.416-5.64 9.055-11.27 12.089-14.2 3.362-32.83-3.586-46.6-7.399 4.58-14.06 7.12-28.672 10.78-42.985"/><path fill="#EFEEEE" d="M1464.79 892.313c5.92 1.107 12.82 2.019 18.33 4.42 2.74 1.192 5.64 3.34 6.41 6.385.91 3.597-1 7.336-2.54 10.457-8.34.565-17.09-2.45-25.1-4.57 1.16-5.506 1.96-11.143 2.9-16.692"/><path fill="#181145" d="M1441.48 945.518c13.17 2.409 34.55 7.133 42.54 18.441 3.31 4.687 4.02 10.024 3.02 15.592-1.42 7.87-5.15 12.409-11.51 16.962-13.53 5.477-31-1.625-44.56-5.196 1.9-14.75 6.02-31.624 10.51-45.799"/><path fill="#EFEEEE" d="M1451.4 962.783c6.25 1.632 13.97 3.01 19.39 6.618 2.1 1.392 3.83 3.306 4.1 5.918.39 3.891-2.07 6.504-4.44 9.181-7.58 1.499-16.54-2.039-23.92-3.991 1.46-5.967 3.13-11.838 4.87-17.726"/></svg>